<?xml version="1.0" encoding="UTF-8"?>
<svg version="1.1" xmlns="http://www.w3.org/2000/svg" width="500" height="500">
<path d="M0 0 C165 0 330 0 500 0 C500 165 500 330 500 500 C335 500 170 500 0 500 C0 335 0 170 0 0 Z " fill="#655BC9" transform="translate(0,0)"/>
<path d="M0 0 C1.93945932 -0.002027 3.87891789 -0.00494361 5.81837463 -0.00869751 C9.8618198 -0.01309248 13.90506466 -0.00678245 17.94848633 0.00732422 C23.08992971 0.02440272 28.23090262 0.0145651 33.37232876 -0.00339317 C37.37131694 -0.01431782 41.37019657 -0.01074502 45.36918831 -0.0030098 C47.26310344 -0.00103108 49.15702894 -0.00338354 51.05093193 -0.01044846 C70.59879415 -0.06738569 87.74517088 1.68345763 102.62890625 15.7109375 C115.86157423 30.02583112 120.12011163 46.01090342 119.81640625 65.0859375 C119.80738281 66.18099609 119.79835938 67.27605469 119.7890625 68.40429688 C119.76578779 71.06925104 119.7330976 73.73371884 119.69140625 76.3984375 C121.50898437 76.36363281 121.50898437 76.36363281 123.36328125 76.328125 C151.11870617 75.95339181 172.4713818 78.63312186 193.50390625 98.7109375 C215.87476604 122.15638007 215.16506103 151.35471796 215.09438276 181.70455432 C215.08668748 186.05312811 215.09385886 190.40168468 215.09854126 194.7502594 C215.10397108 202.04846659 215.09688126 209.34658217 215.08251953 216.64477539 C215.06620455 225.03134939 215.07148443 233.41770438 215.08799875 241.80427307 C215.10170069 249.05839493 215.10349094 256.31245162 215.09568274 263.56658226 C215.09105287 267.87562104 215.0902496 272.18455757 215.10029221 276.4935894 C215.16261662 307.50445677 214.71357834 334.9128064 192.23828125 359.015625 C175.66691722 374.51950853 155.26484004 380.57227911 132.95385742 380.53215027 C132.01486162 380.53441583 131.07586582 380.53668138 130.1084156 380.53901559 C126.98372265 380.54531054 123.85907357 380.54452913 120.734375 380.54370117 C118.48479659 380.54669556 116.2352187 380.55009873 113.98564148 380.55387878 C107.88811725 380.56269658 101.79060707 380.56505602 95.69307709 380.56569457 C91.8771907 380.56640657 88.06130786 380.56854378 84.24542236 380.57119179 C71.60174024 380.57996255 58.95806832 380.58461241 46.31438398 380.58386131 C45.63394293 380.58382136 44.95350188 380.5837814 44.25244141 380.58374023 C43.57115819 380.58369935 42.88987496 380.58365847 42.1879468 380.58361635 C31.16486146 380.58321054 20.14181039 380.59276552 9.11873496 380.6068786 C-2.23035012 380.621293 -13.57941337 380.62796344 -24.92850971 380.62728482 C-31.28769274 380.62703083 -37.64683701 380.62982712 -44.00601196 380.64046288 C-49.99458887 380.65020544 -55.98309046 380.65018114 -61.97167015 380.64294624 C-64.15761616 380.64190787 -66.343567 380.64421832 -68.52950478 380.6503067 C-97.19347289 380.72490865 -123.11622325 378.05506038 -144.6875 357.0859375 C-163.25184432 337.48500542 -165.45080985 313.06816506 -165.46972656 287.29858398 C-165.47436631 285.80894349 -165.47939249 284.31930415 -165.48477173 282.82966614 C-165.4977869 278.81270851 -165.50431926 274.79576752 -165.50878239 270.77879214 C-165.51173098 268.25907662 -165.51583899 265.73936547 -165.52028656 263.21965218 C-165.53393319 255.30672176 -165.54361351 247.39380153 -165.54748845 239.48086017 C-165.55196155 230.40097356 -165.56948665 221.32123804 -165.59848905 212.24139732 C-165.62022863 205.18617247 -165.63019924 198.13098975 -165.63152957 191.07573181 C-165.63256891 186.87893935 -165.63828804 182.68228943 -165.65634918 178.48553276 C-165.77716872 148.71453432 -165.28320336 120.23220477 -143.30859375 97.3984375 C-131.4827833 86.67197198 -118.12768871 80.07614889 -102.30859375 77.3984375 C-101.29667969 77.21152344 -100.28476563 77.02460938 -99.2421875 76.83203125 C-93.61414698 76.21166134 -88.02800991 76.29412971 -82.37109375 76.3359375 C-81.21029297 76.34044922 -80.04949219 76.34496094 -78.85351562 76.34960938 C-76.00515441 76.36133103 -73.15690153 76.3777399 -70.30859375 76.3984375 C-70.3243042 75.67889893 -70.34001465 74.95936035 -70.35620117 74.21801758 C-70.76913143 52.45119182 -70.47733015 34.19565711 -54.5234375 17.578125 C-53.42708984 16.49917969 -53.42708984 16.49917969 -52.30859375 15.3984375 C-51.73238281 14.82351562 -51.15617187 14.24859375 -50.5625 13.65625 C-36.17478474 0.33812508 -18.4614605 -0.06878218 0 0 Z " fill="#FEFDFE" transform="translate(225.30859375,59.6015625)"/>
<path d="M0 0 C50.16 0 100.32 0 152 0 C152 75.24 152 150.48 152 228 C101.84 228 51.68 228 0 228 C0 152.76 0 77.52 0 0 Z " fill="#655BC9" transform="translate(174,174)"/>
<path d="M0 0 C0 74.58 0 149.16 0 226 C-12.6705382 226 -19.66755744 222.7397509 -28.69140625 214.4453125 C-36.16542983 206.61538303 -38.11353037 195.76837649 -38.14044189 185.28500366 C-38.14341302 184.63497553 -38.14638414 183.98494739 -38.1494453 183.31522143 C-38.1580732 181.15072677 -38.15963551 178.9862878 -38.16113281 176.82177734 C-38.16576525 175.26402673 -38.17079049 173.70627724 -38.17617798 172.14852905 C-38.18926474 167.92507324 -38.19573989 163.70163329 -38.20018864 159.47816038 C-38.20312597 156.83506401 -38.20723206 154.19197192 -38.21169281 151.54887772 C-38.22535923 143.26645885 -38.23502952 134.98404982 -38.2388947 126.70162046 C-38.24337056 117.16487271 -38.26090011 107.62826863 -38.2898953 98.09156454 C-38.31156924 90.70447767 -38.32160206 83.31743105 -38.32293582 75.93031275 C-38.32397995 71.52572446 -38.32980364 67.12127137 -38.34775543 62.71671677 C-38.36433478 58.56832749 -38.36634423 54.42017362 -38.35761642 50.27176285 C-38.35685124 48.75776281 -38.36111949 47.2437496 -38.37107468 45.7297821 C-38.45914681 31.48913767 -37.01036512 19.75437874 -27 9 C-18.18227911 1.33960498 -11.84301095 0 0 0 Z " fill="#3153BB" transform="translate(136,175)"/>
<path d="M0 0 C10.7600786 0 16.63292882 1.45185734 25 8 C41.51381754 24.86895341 38.44722737 48.18968053 38.37004495 70.24955463 C38.35857174 74.30550901 38.3628498 78.36145345 38.36479187 82.41741943 C38.3656695 89.21875179 38.35470322 96.01998345 38.33618164 102.82128906 C38.31498808 110.64784438 38.31151465 118.47425285 38.3177436 126.30083108 C38.32346604 133.88379846 38.31776002 141.46671495 38.30657005 149.04967499 C38.30196551 152.2534455 38.30103195 155.45718445 38.3031559 158.66095734 C38.30505952 162.4401514 38.29677827 166.21919901 38.2810955 169.99835968 C38.27493107 172.02082906 38.27832693 174.04332077 38.28216553 176.0657959 C38.19742166 190.88025276 37.2483362 205.03313955 26.79296875 216.40234375 C18.68439445 223.62763109 10.72771868 226 0 226 C0 151.42 0 76.84 0 0 Z " fill="#9B65D8" transform="translate(364,175)"/>
<path d="M0 0 C0.79903244 -0.00335861 1.59806488 -0.00671722 2.42131042 -0.01017761 C5.05514086 -0.01965392 7.6889075 -0.02162903 10.32275391 -0.02270508 C12.15971909 -0.02591989 13.99668403 -0.02928414 15.83364868 -0.03279114 C19.68191115 -0.03877405 23.53015118 -0.04063189 27.37841797 -0.04003906 C32.29996784 -0.03993747 37.22137335 -0.05359026 42.14288902 -0.07081127 C45.93651994 -0.08195089 49.73011616 -0.08395767 53.52376175 -0.08342934 C55.3377698 -0.08460647 57.15177884 -0.08901323 58.96577072 -0.0967617 C61.50723017 -0.1066015 64.04837889 -0.10366791 66.58984375 -0.09765625 C67.33293289 -0.10327576 68.07602203 -0.10889526 68.84162903 -0.11468506 C74.32514087 -0.08186334 79.63034881 0.3652451 84.06884766 3.80932617 C84.61927734 4.45643555 85.16970703 5.10354492 85.73681641 5.77026367 C86.58179688 6.71772461 86.58179688 6.71772461 87.44384766 7.68432617 C92.967732 16.86650859 90.92431641 27.97391477 90.92431641 38.14526367 C53.30431641 38.14526367 15.68431641 38.14526367 -23.07568359 38.14526367 C-23.07568359 14.14526367 -23.07568359 14.14526367 -19.07568359 6.14526367 C-13.07228447 0.14186455 -8.14913627 -0.00494296 0 0 Z " fill="#675DCA" transform="translate(216.07568359375,97.854736328125)"/>
</svg>
